<?xml version="1.0" encoding="utf-8"?>
<!-- Generator: Adobe Illustrator 24.1.2, SVG Export Plug-In . SVG Version: 6.00 Build 0)  -->
<svg version="1.1" id="Layer_1" xmlns="http://www.w3.org/2000/svg" xmlns:xlink="http://www.w3.org/1999/xlink" x="0px" y="0px"
	 viewBox="0 0 79.4 75" style="enable-background:new 0 0 79.4 75;" xml:space="preserve">
<style type="text/css">
	.st0{fill:url(#SVGID_1_);}
	.st1{fill:url(#SVGID_2_);}
	.st2{fill:url(#SVGID_3_);}
	.st3{fill:none;stroke:url(#SVGID_4_);stroke-width:4.3008;}
</style>
<linearGradient id="SVGID_1_" gradientUnits="userSpaceOnUse" x1="14.4528" y1="55.8728" x2="26.5319" y2="21.7613" gradientTransform="matrix(1 0 0 -1 0 73.1968)">
	<stop  offset="0" style="stop-color:#485BFF"/>
	<stop  offset="1" style="stop-color:#FF59F8"/>
</linearGradient>
<path class="st0" d="M28.1,24.8l-3.1,15.4h-4.2l0.3-1.5c-1.3,1.2-2.9,1.7-4.7,1.7c-1.2,0-2.3-0.3-3.3-0.8c-1-0.6-1.8-1.3-2.4-2.4
	C10,36.2,9.7,35,9.7,33.6c0-1.7,0.4-3.2,1.1-4.6c0.8-1.4,1.8-2.4,3.1-3.2c1.3-0.8,2.7-1.2,4.3-1.2c2.4,0,4,0.8,5,2.3l0.4-2.1H28.1z
	 M17.8,36.8c0.9,0,1.7-0.2,2.4-0.6c0.7-0.4,1.2-1,1.6-1.8c0.4-0.8,0.6-1.6,0.6-2.6c0-1.1-0.3-1.9-0.9-2.5c-0.6-0.6-1.5-0.9-2.6-0.9
	c-0.9,0-1.7,0.2-2.4,0.7c-0.7,0.4-1.2,1-1.6,1.8c-0.4,0.8-0.6,1.6-0.6,2.6c0,1.1,0.3,1.9,0.9,2.5C15.8,36.5,16.6,36.8,17.8,36.8z"/>
<linearGradient id="SVGID_2_" gradientUnits="userSpaceOnUse" x1="27.758" y1="60.5843" x2="39.8371" y2="26.4728" gradientTransform="matrix(1 0 0 -1 0 73.1968)">
	<stop  offset="0" style="stop-color:#485BFF"/>
	<stop  offset="1" style="stop-color:#FF59F8"/>
</linearGradient>
<path class="st1" d="M33.7,40.5c-1.3,0-2.6-0.1-3.8-0.4c-1.2-0.3-2.1-0.7-2.8-1.2l1.7-3.2c0.7,0.4,1.5,0.8,2.4,1.1
	c1,0.3,1.9,0.4,2.9,0.4c1,0,1.8-0.1,2.3-0.4c0.5-0.3,0.7-0.6,0.7-1.1c0-0.4-0.2-0.7-0.7-0.8c-0.4-0.2-1.1-0.4-2.1-0.5
	c-1.1-0.2-2-0.4-2.8-0.7c-0.7-0.2-1.3-0.6-1.9-1.2C29.3,31.8,29,31,29,30c0-1.7,0.7-3,2.1-4c1.4-1,3.3-1.4,5.6-1.4
	c1.1,0,2.1,0.1,3.1,0.3s1.9,0.5,2.6,0.9l-1.6,3.3c-1.3-0.8-2.8-1.2-4.6-1.2c-1,0-1.7,0.1-2.2,0.4c-0.5,0.3-0.7,0.6-0.7,1.1
	c0,0.4,0.2,0.7,0.7,0.9c0.4,0.2,1.2,0.4,2.2,0.6c1.1,0.2,2,0.4,2.7,0.7c0.7,0.2,1.3,0.6,1.8,1.2s0.8,1.3,0.8,2.3c0,1.7-0.7,3-2.2,4
	C37.8,40,36,40.5,33.7,40.5z"/>
<linearGradient id="SVGID_3_" gradientUnits="userSpaceOnUse" x1="42.9497" y1="65.9638" x2="55.0288" y2="31.8523" gradientTransform="matrix(1 0 0 -1 0 73.1968)">
	<stop  offset="0" style="stop-color:#485BFF"/>
	<stop  offset="1" style="stop-color:#FF59F8"/>
</linearGradient>
<path class="st2" d="M53.6,31.6l5.3,8.7h-5.2l-3.7-6l-2.7,2.3l-0.7,3.7h-4.5L46.4,19h4.5l-2.4,11.9l7.4-6h5.8L53.6,31.6z"/>
<linearGradient id="SVGID_4_" gradientUnits="userSpaceOnUse" x1="11.9378" y1="77.3123" x2="72.1486" y2="2.7653" gradientTransform="matrix(1 0 0 -1 0 73.1968)">
	<stop  offset="0" style="stop-color:#485BFF"/>
	<stop  offset="1" style="stop-color:#FF59F8"/>
</linearGradient>
<path class="st3" d="M3.1,15.9V8.7C3.1,5.6,5.7,3,8.9,3h61.6c3.2,0,5.7,2.6,5.7,5.7v40.1c0,3.2-2.6,5.7-5.7,5.7h-10l3.4,15.7
	c0.3,1.4-1.3,2.3-2.4,1.4L46.1,57.5H8.9c-3.2,0-5.7-2.6-5.7-5.7v-2.9"/>
</svg>
