<?xml version="1.0" standalone="no"?>
<!DOCTYPE svg PUBLIC "-//W3C//DTD SVG 20010904//EN"
 "http://www.w3.org/TR/2001/REC-SVG-20010904/DTD/svg10.dtd">
<svg version="1.0" xmlns="http://www.w3.org/2000/svg"
 width="632.000000pt" height="632.000000pt" viewBox="0 0 632.000000 632.000000"
 preserveAspectRatio="xMidYMid meet">
<metadata>
Created by potrace 1.14, written by Peter Selinger 2001-2017
</metadata>
<g transform="translate(0.000000,632.000000) scale(0.100000,-0.100000)"
fill="#000000" stroke="none">
<path d="M650 6069 c-97 -12 -193 -41 -259 -81 -39 -23 -142 -106 -153 -123
-3 -5 -18 -23 -32 -40 -52 -61 -107 -183 -122 -276 -7 -44 -13 -644 -7 -664 2
-7 63 -11 171 -10 l167 0 1 297 c2 305 9 377 42 417 10 11 26 32 37 46 22 27
89 71 127 83 12 4 1155 8 2538 9 l2515 2 50 -24 c67 -33 113 -78 144 -145 l25
-55 1 -1620 c0 -891 -3 -1642 -8 -1670 -5 -27 -9 -56 -9 -62 -1 -7 -5 -13 -10
-13 -4 0 -8 -7 -8 -16 0 -16 -105 -125 -118 -122 -4 1 -20 -5 -37 -12 -24 -11
-141 -14 -555 -16 -289 -1 -530 -3 -536 -3 -9 -1 -9 -12 -3 -38 5 -21 12 -49
15 -63 3 -14 18 -86 34 -160 16 -74 31 -146 34 -160 3 -14 15 -68 26 -120 12
-52 23 -106 26 -120 3 -14 7 -33 10 -42 3 -10 7 -28 10 -40 8 -45 14 -74 26
-128 6 -30 12 -57 13 -60 2 -6 24 -108 30 -135 2 -11 13 -63 24 -115 11 -52
19 -95 18 -97 -2 -1 -35 28 -75 65 -104 97 -208 193 -245 225 -18 16 -74 68
-126 115 -119 109 -128 118 -230 211 -47 42 -99 90 -116 106 -18 17 -69 64
-115 105 -106 96 -95 86 -168 155 l-64 60 -1546 0 -1547 0 -57 28 c-123 61
-161 142 -162 347 l-1 135 -171 1 -170 1 2 -166 c2 -182 13 -239 64 -342 82
-166 235 -286 427 -336 15 -4 702 -8 1526 -9 l1499 -2 37 -34 c150 -136 249
-226 267 -243 11 -11 60 -56 109 -100 48 -44 112 -102 141 -130 29 -27 83 -77
120 -110 37 -33 89 -80 115 -105 26 -25 65 -60 86 -79 21 -19 81 -73 133 -121
172 -158 185 -169 233 -195 100 -55 243 -35 326 45 86 84 106 174 71 330 -11
52 -23 109 -26 125 -3 17 -9 44 -14 60 -5 17 -11 46 -14 66 -3 20 -8 42 -10
50 -3 8 -8 25 -10 39 -3 14 -7 34 -9 45 -3 11 -14 67 -26 125 -12 58 -25 119
-30 135 -5 17 -12 47 -15 69 -4 21 -8 41 -10 45 -2 3 -7 24 -10 46 -4 22 -9
48 -12 57 -3 9 -7 25 -9 35 -2 10 -7 33 -11 51 l-6 32 313 1 c330 0 344 1 424
20 95 22 220 93 290 164 34 33 95 119 118 166 64 132 60 4 61 1851 2 1650 0
1740 -28 1813 -2 5 -4 15 -6 20 -1 6 -7 19 -13 30 -6 11 -12 22 -12 25 0 3
-17 31 -38 63 -92 143 -238 243 -407 278 -41 9 -704 12 -2540 13 -1367 1
-2510 -2 -2540 -5z"/>
<path d="M3691 4622 c1 -4 0 -9 -1 -12 -3 -9 -8 -34 -15 -74 -4 -21 -8 -46
-10 -55 -9 -39 -55 -259 -60 -291 -3 -19 -12 -62 -20 -95 -7 -33 -16 -76 -19
-95 -3 -19 -15 -76 -26 -127 -11 -51 -22 -109 -26 -130 -3 -21 -9 -54 -14 -73
-5 -19 -11 -52 -14 -74 -4 -21 -8 -42 -11 -46 -2 -4 -6 -22 -9 -41 -2 -19 -18
-101 -35 -184 -18 -82 -33 -160 -36 -172 -2 -13 -11 -58 -19 -100 -9 -43 -18
-88 -20 -100 -5 -21 -4 -21 175 -21 127 0 179 3 180 12 0 6 2 20 5 31 2 11 15
73 27 137 21 104 27 120 53 140 16 13 63 53 105 91 l77 67 80 -127 c43 -71
110 -178 148 -240 l69 -112 202 1 c112 0 203 3 203 6 0 7 -37 70 -140 238 -36
59 -74 122 -85 140 -11 18 -58 95 -104 170 l-84 137 36 31 c20 17 162 135 316
261 154 127 280 233 280 236 1 3 -100 6 -224 6 l-225 1 -132 -106 c-73 -58
-135 -109 -138 -112 -16 -19 -312 -252 -315 -248 -3 2 0 20 5 39 5 19 12 50
15 69 3 19 8 42 10 50 2 8 7 29 10 45 5 34 10 58 25 130 14 67 19 94 26 130 3
17 10 50 15 75 6 25 13 56 15 70 2 14 7 36 10 50 3 14 8 36 10 50 3 14 11 54
18 90 8 36 17 82 20 102 l6 37 -180 0 c-99 -1 -179 -4 -179 -7z"/>
<path d="M2888 4185 c-1 -2 -37 -6 -78 -10 -95 -8 -106 -9 -160 -24 -137 -39
-258 -132 -308 -238 -24 -52 -27 -69 -26 -163 1 -186 50 -250 235 -305 78 -24
152 -40 228 -50 59 -8 132 -33 154 -53 28 -25 22 -79 -13 -112 -39 -37 -104
-51 -217 -49 -84 1 -116 5 -193 23 -37 8 -129 46 -176 73 l-42 22 -37 -72
c-21 -40 -51 -96 -68 -126 l-29 -54 23 -18 c13 -10 29 -19 36 -19 6 0 13 -4
15 -8 4 -10 150 -58 201 -66 259 -40 502 -14 657 70 88 48 181 151 197 219 38
161 -1 287 -112 361 -53 35 -161 71 -265 89 -19 3 -62 13 -95 21 -33 9 -64 17
-70 18 -40 9 -84 40 -89 64 -8 45 -4 60 24 87 43 41 102 54 231 50 120 -3 236
-32 307 -75 19 -12 32 -15 32 -8 0 6 7 19 16 29 8 9 17 23 18 31 2 7 22 53 45
102 27 55 39 92 33 98 -11 11 -135 55 -177 62 -16 3 -41 8 -55 11 -14 3 -68 8
-120 11 -52 3 -100 7 -107 9 -6 2 -13 2 -15 0z"/>
<path d="M1325 4170 c-22 -5 -51 -11 -64 -14 -32 -7 -168 -72 -185 -88 -8 -7
-24 -20 -36 -28 -107 -72 -222 -253 -246 -390 -3 -14 -8 -34 -11 -45 -12 -38
-11 -204 2 -262 11 -53 32 -105 70 -173 28 -49 97 -121 156 -160 32 -23 59
-38 59 -35 0 3 14 -2 32 -11 43 -22 162 -42 235 -39 96 5 224 41 245 70 4 6 8
6 8 2 0 -5 18 5 39 22 21 17 41 31 44 31 2 0 1 -19 -4 -42 -4 -24 -8 -49 -9
-55 0 -10 39 -13 165 -13 163 0 165 0 169 23 10 46 56 273 60 297 3 14 18 90
34 170 17 80 33 159 36 175 3 17 12 62 20 100 8 39 16 84 19 100 3 17 8 41 11
55 5 23 52 252 56 275 6 29 -5 31 -175 31 -96 0 -175 -2 -176 -5 0 -3 -3 -15
-5 -26 -3 -11 -7 -29 -9 -40 -3 -11 -6 -29 -9 -40 -2 -11 -5 -28 -5 -37 -1
-13 -16 -3 -54 35 -55 54 -83 77 -91 77 -3 0 -17 5 -33 12 -15 6 -31 12 -35
13 -5 2 -9 3 -10 5 -19 14 -249 22 -303 10z m315 -317 c60 -27 88 -56 117
-120 55 -120 13 -321 -88 -424 -104 -106 -313 -130 -434 -50 -63 42 -89 99
-92 203 -2 95 6 138 43 215 44 92 129 164 224 189 66 18 176 11 230 -13z"/>
</g>
</svg>
